<svg xmlns="http://www.w3.org/2000/svg" viewBox="0 0 19.11 10.65"><defs><style>.cls-1{fill:#fff}</style></defs><g id="Calque_2" data-name="Calque 2"><g id="Calque_1-2" data-name="Calque 1"><path class="cls-1" d="M7.12 1.67 7.86 0h-6L0 10.65h1.82l.71-4.05h2.39l.74-1.67H2.83l.58-3.26Zm11.99 2.19A10.78 10.78 0 0 1 19 5.3a10.36 10.36 0 0 1-.69 2.6 4.73 4.73 0 0 1-1.11 1.64 3.93 3.93 0 0 1-1.51.86 6.42 6.42 0 0 1-1.85.25H7.65L12.4 0h1.73L10 9.18h4.06a2.75 2.75 0 0 0 2.11-.93 5.67 5.67 0 0 0 1.21-2.95 8.48 8.48 0 0 0 .11-1.3 3.56 3.56 0 0 0-.3-1.56 1.77 1.77 0 0 0-1.74-1h-.25L15.45 0h.26a3 3 0 0 1 2.83 1.37 4.8 4.8 0 0 1 .57 2.49ZM10.93 0 6.17 10.65H4.45L9.2 0h1.73z"/><path class="cls-1" d="M10.93 0 6.17 10.65H4.45L9.2 0h1.73z"/></g></g></svg>